<?xml version="1.0" encoding="UTF-8"?>
<!DOCTYPE svg PUBLIC "-//W3C//DTD SVG 1.1//EN" "http://www.w3.org/Graphics/SVG/1.1/DTD/svg11.dtd">
<svg xmlns="http://www.w3.org/2000/svg" version="1.1" width="534px" height="534px" style="shape-rendering:geometricPrecision; text-rendering:geometricPrecision; image-rendering:optimizeQuality; fill-rule:evenodd; clip-rule:evenodd" xmlns:xlink="http://www.w3.org/1999/xlink">
<g><path style="opacity:0.997" fill="#1075bc" d="M -0.5,-0.5 C 177.5,-0.5 355.5,-0.5 533.5,-0.5C 533.5,177.5 533.5,355.5 533.5,533.5C 355.5,533.5 177.5,533.5 -0.5,533.5C -0.5,355.5 -0.5,177.5 -0.5,-0.5 Z"/></g>
<g><path style="opacity:1" fill="#fefefe" d="M 115.5,65.5 C 215.833,65.5 316.167,65.5 416.5,65.5C 416.5,199.5 416.5,333.5 416.5,467.5C 316.167,467.5 215.833,467.5 115.5,467.5C 115.5,333.5 115.5,199.5 115.5,65.5 Z"/></g>
<g><path style="opacity:1" fill="#141414" d="M 316.5,136.5 C 319.667,136.4 322.667,137.067 325.5,138.5C 326.833,140.5 326.833,142.5 325.5,144.5C 324.349,138.909 321.016,137.075 315.5,139C 311.5,142.333 311.5,145.667 315.5,149C 320.136,149.362 324.303,150.862 328,153.5C 329.13,162.38 325.13,167.046 316,167.5C 313.863,166.923 311.696,166.59 309.5,166.5C 309.337,164.143 309.503,161.81 310,159.5C 309.946,162.191 311.113,164.024 313.5,165C 321.17,166.972 325.003,164.139 325,156.5C 324.167,155.667 323.333,154.833 322.5,154C 318.789,153.156 315.123,152.156 311.5,151C 307.682,144.058 309.348,139.224 316.5,136.5 Z"/></g>
<g><path style="opacity:1" fill="#141414" d="M 363.5,136.5 C 366.667,136.4 369.667,137.067 372.5,138.5C 373.833,140.5 373.833,142.5 372.5,144.5C 371.349,138.909 368.016,137.075 362.5,139C 358.5,142.333 358.5,145.667 362.5,149C 367.136,149.362 371.303,150.862 375,153.5C 376.13,162.38 372.13,167.046 363,167.5C 360.863,166.923 358.696,166.59 356.5,166.5C 356.337,164.143 356.503,161.81 357,159.5C 356.946,162.191 358.113,164.024 360.5,165C 368.17,166.972 372.003,164.139 372,156.5C 371.167,155.667 370.333,154.833 369.5,154C 365.789,153.156 362.123,152.156 358.5,151C 354.682,144.058 356.348,139.224 363.5,136.5 Z"/></g>
<g><path style="opacity:1" fill="#0d0d0d" d="M 186.5,149.5 C 187.833,151.167 187.833,152.833 186.5,154.5C 184.012,152.612 181.012,151.945 177.5,152.5C 177.5,156.5 177.5,160.5 177.5,164.5C 181.833,164.5 186.167,164.5 190.5,164.5C 190.5,163.5 190.5,162.5 190.5,161.5C 191.451,162.919 191.784,164.585 191.5,166.5C 184.825,166.666 178.158,166.5 171.5,166C 173.456,157.099 174.122,147.932 173.5,138.5C 177.099,137.458 182.766,137.125 190.5,137.5C 190.662,139.527 190.495,141.527 190,143.5C 189.51,142.207 189.343,140.873 189.5,139.5C 185.5,139.5 181.5,139.5 177.5,139.5C 177.5,143.167 177.5,146.833 177.5,150.5C 180.713,150.81 183.713,150.477 186.5,149.5 Z"/></g>
<g><path style="opacity:1" fill="#171717" d="M 200.5,137.5 C 202.017,137.511 203.184,138.177 204,139.5C 205.331,142.834 207.165,145.834 209.5,148.5C 211.833,145.167 214.167,141.833 216.5,138.5C 218.074,137.369 219.741,137.202 221.5,138C 216.464,141.046 212.798,145.38 210.5,151C 213.119,155.068 215.619,159.234 218,163.5C 222.265,166.335 221.432,167.168 215.5,166C 213.19,161.867 210.524,158.034 207.5,154.5C 204.638,158.195 201.972,162.029 199.5,166C 198.167,166.667 196.833,166.667 195.5,166C 200.263,162.232 203.93,157.565 206.5,152C 204.674,145.96 201.008,141.626 195.5,139C 197.382,138.802 199.048,138.302 200.5,137.5 Z"/></g>
<g><path style="opacity:1" fill="#101011" d="M 223.5,138.5 C 230.389,137.145 237.389,137.312 244.5,139C 247.643,144.111 246.643,148.278 241.5,151.5C 240.344,150.424 240.511,149.424 242,148.5C 243.409,140.243 240.076,137.243 232,139.5C 231.5,148.16 231.334,156.827 231.5,165.5C 230.167,166.833 228.833,166.833 227.5,165.5C 227.5,156.5 227.5,147.5 227.5,138.5C 226.167,138.5 224.833,138.5 223.5,138.5 Z"/></g>
<g><path style="opacity:1" fill="#0d0d0d" d="M 265.5,149.5 C 266.833,151.167 266.833,152.833 265.5,154.5C 263.012,152.612 260.012,151.945 256.5,152.5C 256.5,156.5 256.5,160.5 256.5,164.5C 260.833,164.5 265.167,164.5 269.5,164.5C 269.5,163.5 269.5,162.5 269.5,161.5C 270.451,162.919 270.784,164.585 270.5,166.5C 263.825,166.666 257.158,166.5 250.5,166C 252.456,157.099 253.122,147.932 252.5,138.5C 256.099,137.458 261.766,137.125 269.5,137.5C 269.662,139.527 269.495,141.527 269,143.5C 268.51,142.207 268.343,140.873 268.5,139.5C 264.5,139.5 260.5,139.5 256.5,139.5C 256.5,143.167 256.5,146.833 256.5,150.5C 259.713,150.81 262.713,150.477 265.5,149.5 Z"/></g>
<g><path style="opacity:1" fill="#141415" d="M 280.5,143.5 C 280.217,142.711 279.717,142.044 279,141.5C 278.178,149.345 278.344,157.011 279.5,164.5C 280.263,165.268 281.263,165.768 282.5,166C 276.054,166.737 274.387,166.57 277.5,165.5C 277.5,156.5 277.5,147.5 277.5,138.5C 273.9,137.424 275.233,137.424 281.5,138.5C 287.477,146.311 293.644,153.978 300,161.5C 300.5,153.841 300.666,146.174 300.5,138.5C 301.167,137.167 301.833,137.167 302.5,138.5C 302.666,148.172 302.5,157.839 302,167.5C 300.108,166.87 298.441,165.87 297,164.5C 291.48,157.431 285.98,150.431 280.5,143.5 Z"/></g>
<g><path style="opacity:1" fill="#0d0d0d" d="M 347.5,149.5 C 348.833,151.167 348.833,152.833 347.5,154.5C 345.012,152.612 342.012,151.945 338.5,152.5C 338.5,156.5 338.5,160.5 338.5,164.5C 342.833,164.5 347.167,164.5 351.5,164.5C 351.5,163.5 351.5,162.5 351.5,161.5C 352.451,162.919 352.784,164.585 352.5,166.5C 345.825,166.666 339.158,166.5 332.5,166C 334.456,157.099 335.122,147.932 334.5,138.5C 338.099,137.458 343.766,137.125 351.5,137.5C 351.662,139.527 351.495,141.527 351,143.5C 350.51,142.207 350.343,140.873 350.5,139.5C 346.5,139.5 342.5,139.5 338.5,139.5C 338.5,143.167 338.5,146.833 338.5,150.5C 341.713,150.81 344.713,150.477 347.5,149.5 Z"/></g>
<g><path style="opacity:1" fill="#78797c" d="M 280.5,143.5 C 279.509,150.313 279.175,157.313 279.5,164.5C 278.344,157.011 278.178,149.345 279,141.5C 279.717,142.044 280.217,142.711 280.5,143.5 Z"/></g>
<g><path style="opacity:1" fill="#7a7b7e" d="M 186.5,154.5 C 187.833,152.833 187.833,151.167 186.5,149.5C 186.281,148.325 186.614,147.325 187.5,146.5C 188.833,149.833 188.833,153.167 187.5,156.5C 186.702,156.043 186.369,155.376 186.5,154.5 Z"/></g>
<g><path style="opacity:1" fill="#7a7b7e" d="M 265.5,154.5 C 266.833,152.833 266.833,151.167 265.5,149.5C 265.281,148.325 265.614,147.325 266.5,146.5C 267.833,149.833 267.833,153.167 266.5,156.5C 265.702,156.043 265.369,155.376 265.5,154.5 Z"/></g>
<g><path style="opacity:1" fill="#7a7b7e" d="M 347.5,154.5 C 348.833,152.833 348.833,151.167 347.5,149.5C 347.281,148.325 347.614,147.325 348.5,146.5C 349.833,149.833 349.833,153.167 348.5,156.5C 347.702,156.043 347.369,155.376 347.5,154.5 Z"/></g>
<g><path style="opacity:1" fill="#9a9c9f" d="M 191.5,166.5 C 191.784,164.585 191.451,162.919 190.5,161.5C 190.369,160.624 190.702,159.957 191.5,159.5C 192.797,161.973 192.797,164.307 191.5,166.5 Z"/></g>
<g><path style="opacity:1" fill="#9a9c9f" d="M 270.5,166.5 C 270.784,164.585 270.451,162.919 269.5,161.5C 269.369,160.624 269.702,159.957 270.5,159.5C 271.797,161.973 271.797,164.307 270.5,166.5 Z"/></g>
<g><path style="opacity:1" fill="#9a9c9f" d="M 352.5,166.5 C 352.784,164.585 352.451,162.919 351.5,161.5C 351.369,160.624 351.702,159.957 352.5,159.5C 353.797,161.973 353.797,164.307 352.5,166.5 Z"/></g>
<g><path style="opacity:1" fill="#5b8771" d="M 176.5,190.5 C 202.167,190.5 227.833,190.5 253.5,190.5C 253.5,192.167 253.5,193.833 253.5,195.5C 227.833,195.5 202.167,195.5 176.5,195.5C 176.5,193.833 176.5,192.167 176.5,190.5 Z"/></g>
<g><path style="opacity:1" fill="#4e7f68" d="M 355.5,190.5 C 355.5,191.833 355.5,193.167 355.5,194.5C 329.833,194.5 304.167,194.5 278.5,194.5C 278.5,193.167 278.5,191.833 278.5,190.5C 304.167,190.5 329.833,190.5 355.5,190.5 Z"/></g>
<g><path style="opacity:1" fill="#99afa2" d="M 355.5,190.5 C 356.451,191.919 356.784,193.585 356.5,195.5C 330.328,195.831 304.328,195.498 278.5,194.5C 304.167,194.5 329.833,194.5 355.5,194.5C 355.5,193.167 355.5,191.833 355.5,190.5 Z"/></g>
<g><path style="opacity:1" fill="#99afa2" d="M 278.5,213.5 C 304.328,212.502 330.328,212.169 356.5,212.5C 356.784,214.415 356.451,216.081 355.5,217.5C 355.5,216.167 355.5,214.833 355.5,213.5C 329.833,213.5 304.167,213.5 278.5,213.5 Z"/></g>
<g><path style="opacity:1" fill="#5b8771" d="M 176.5,212.5 C 202.167,212.5 227.833,212.5 253.5,212.5C 253.5,214.167 253.5,215.833 253.5,217.5C 227.833,217.5 202.167,217.5 176.5,217.5C 176.5,215.833 176.5,214.167 176.5,212.5 Z"/></g>
<g><path style="opacity:1" fill="#4e7f68" d="M 278.5,213.5 C 304.167,213.5 329.833,213.5 355.5,213.5C 355.5,214.833 355.5,216.167 355.5,217.5C 329.833,217.5 304.167,217.5 278.5,217.5C 278.5,216.167 278.5,214.833 278.5,213.5 Z"/></g>
<g><path style="opacity:1" fill="#c6d1c9" d="M 278.5,235.5 C 304.328,234.502 330.328,234.169 356.5,234.5C 356.784,236.415 356.451,238.081 355.5,239.5C 355.5,238.167 355.5,236.833 355.5,235.5C 329.833,235.5 304.167,235.5 278.5,235.5 Z"/></g>
<g><path style="opacity:1" fill="#467b62" d="M 176.5,235.5 C 202.167,235.5 227.833,235.5 253.5,235.5C 253.5,236.833 253.5,238.167 253.5,239.5C 227.833,239.5 202.167,239.5 176.5,239.5C 176.5,238.167 176.5,236.833 176.5,235.5 Z"/></g>
<g><path style="opacity:1" fill="#467b62" d="M 278.5,235.5 C 304.167,235.5 329.833,235.5 355.5,235.5C 355.5,236.833 355.5,238.167 355.5,239.5C 329.833,239.5 304.167,239.5 278.5,239.5C 278.5,238.167 278.5,236.833 278.5,235.5 Z"/></g>
<g><path style="opacity:1" fill="#5b8771" d="M 176.5,257.5 C 202.167,257.5 227.833,257.5 253.5,257.5C 253.5,259.167 253.5,260.833 253.5,262.5C 227.833,262.5 202.167,262.5 176.5,262.5C 176.5,260.833 176.5,259.167 176.5,257.5 Z"/></g>
<g><path style="opacity:1" fill="#4e7f68" d="M 355.5,257.5 C 355.5,258.833 355.5,260.167 355.5,261.5C 329.833,261.5 304.167,261.5 278.5,261.5C 278.5,260.167 278.5,258.833 278.5,257.5C 304.167,257.5 329.833,257.5 355.5,257.5 Z"/></g>
<g><path style="opacity:1" fill="#99afa2" d="M 355.5,257.5 C 356.451,258.919 356.784,260.585 356.5,262.5C 330.328,262.831 304.328,262.498 278.5,261.5C 304.167,261.5 329.833,261.5 355.5,261.5C 355.5,260.167 355.5,258.833 355.5,257.5 Z"/></g>
<g><path style="opacity:1" fill="#99afa2" d="M 278.5,280.5 C 304.328,279.502 330.328,279.169 356.5,279.5C 356.784,281.415 356.451,283.081 355.5,284.5C 355.5,283.167 355.5,281.833 355.5,280.5C 329.833,280.5 304.167,280.5 278.5,280.5 Z"/></g>
<g><path style="opacity:1" fill="#5b8771" d="M 176.5,279.5 C 202.167,279.5 227.833,279.5 253.5,279.5C 253.5,281.167 253.5,282.833 253.5,284.5C 227.833,284.5 202.167,284.5 176.5,284.5C 176.5,282.833 176.5,281.167 176.5,279.5 Z"/></g>
<g><path style="opacity:1" fill="#4e7f68" d="M 278.5,280.5 C 304.167,280.5 329.833,280.5 355.5,280.5C 355.5,281.833 355.5,283.167 355.5,284.5C 329.833,284.5 304.167,284.5 278.5,284.5C 278.5,283.167 278.5,281.833 278.5,280.5 Z"/></g>
<g><path style="opacity:1" fill="#c6d1c9" d="M 278.5,302.5 C 304.328,301.502 330.328,301.169 356.5,301.5C 356.784,303.415 356.451,305.081 355.5,306.5C 355.5,305.167 355.5,303.833 355.5,302.5C 329.833,302.5 304.167,302.5 278.5,302.5 Z"/></g>
<g><path style="opacity:1" fill="#467b62" d="M 176.5,302.5 C 202.167,302.5 227.833,302.5 253.5,302.5C 253.5,303.833 253.5,305.167 253.5,306.5C 227.833,306.5 202.167,306.5 176.5,306.5C 176.5,305.167 176.5,303.833 176.5,302.5 Z"/></g>
<g><path style="opacity:1" fill="#467b62" d="M 278.5,302.5 C 304.167,302.5 329.833,302.5 355.5,302.5C 355.5,303.833 355.5,305.167 355.5,306.5C 329.833,306.5 304.167,306.5 278.5,306.5C 278.5,305.167 278.5,303.833 278.5,302.5 Z"/></g>
<g><path style="opacity:1" fill="#5b8771" d="M 176.5,324.5 C 202.167,324.5 227.833,324.5 253.5,324.5C 253.5,326.167 253.5,327.833 253.5,329.5C 227.833,329.5 202.167,329.5 176.5,329.5C 176.5,327.833 176.5,326.167 176.5,324.5 Z"/></g>
<g><path style="opacity:1" fill="#4e7f68" d="M 355.5,324.5 C 355.5,325.833 355.5,327.167 355.5,328.5C 329.833,328.5 304.167,328.5 278.5,328.5C 278.5,327.167 278.5,325.833 278.5,324.5C 304.167,324.5 329.833,324.5 355.5,324.5 Z"/></g>
<g><path style="opacity:1" fill="#99afa2" d="M 355.5,324.5 C 356.451,325.919 356.784,327.585 356.5,329.5C 330.328,329.831 304.328,329.498 278.5,328.5C 304.167,328.5 329.833,328.5 355.5,328.5C 355.5,327.167 355.5,325.833 355.5,324.5 Z"/></g>
<g><path style="opacity:1" fill="#99afa2" d="M 278.5,347.5 C 304.328,346.502 330.328,346.169 356.5,346.5C 356.784,348.415 356.451,350.081 355.5,351.5C 355.5,350.167 355.5,348.833 355.5,347.5C 329.833,347.5 304.167,347.5 278.5,347.5 Z"/></g>
<g><path style="opacity:1" fill="#5b8771" d="M 176.5,346.5 C 202.167,346.5 227.833,346.5 253.5,346.5C 253.5,348.167 253.5,349.833 253.5,351.5C 227.833,351.5 202.167,351.5 176.5,351.5C 176.5,349.833 176.5,348.167 176.5,346.5 Z"/></g>
<g><path style="opacity:1" fill="#4e7f68" d="M 278.5,347.5 C 304.167,347.5 329.833,347.5 355.5,347.5C 355.5,348.833 355.5,350.167 355.5,351.5C 329.833,351.5 304.167,351.5 278.5,351.5C 278.5,350.167 278.5,348.833 278.5,347.5 Z"/></g>
<g><path style="opacity:1" fill="#487c64" d="M 258.5,359.5 C 288.058,357.915 306.891,371.248 315,399.5C 317.284,429.797 303.784,448.63 274.5,456C 244.019,458.186 225.519,444.352 219,414.5C 217.956,385.91 231.123,367.577 258.5,359.5 Z"/></g>
<g><path style="opacity:1" fill="#d4e6f5" d="M 265.5,371.5 C 266.496,371.414 267.329,371.748 268,372.5C 268.495,374.473 268.662,376.473 268.5,378.5C 278.384,378.88 283.217,383.88 283,393.5C 281.534,395.325 279.701,395.825 277.5,395C 275.623,392.749 274.123,390.249 273,387.5C 271.915,386.707 270.748,386.04 269.5,385.5C 268.338,390.467 268.171,395.467 269,400.5C 284.897,403.96 289.23,412.96 282,427.5C 278.151,430.592 273.818,432.592 269,433.5C 268.501,437.821 268.334,442.154 268.5,446.5C 267.178,446.67 266.011,446.337 265,445.5C 264.667,441.5 264.333,437.5 264,433.5C 254.98,432.149 249.48,426.982 247.5,418C 248.408,414.375 250.741,413.041 254.5,414C 256.563,416.511 258.063,419.344 259,422.5C 260.242,423.872 261.742,424.872 263.5,425.5C 264.495,419.872 264.829,414.206 264.5,408.5C 249.228,405.127 245.228,396.627 252.5,383C 255.913,380.076 259.913,378.576 264.5,378.5C 264.298,376.05 264.631,373.717 265.5,371.5 Z"/></g>
<g><path style="opacity:1" fill="#51816c" d="M 262.5,385.5 C 263.805,387.397 264.471,389.731 264.5,392.5C 265.344,399.325 263.511,400.659 259,396.5C 256.35,391.562 257.517,387.895 262.5,385.5 Z"/></g>
<g><path style="opacity:1" fill="#53836e" d="M 268.5,410.5 C 276.401,411.849 278.568,416.183 275,423.5C 273.266,425.451 271.099,426.451 268.5,426.5C 268.5,421.167 268.5,415.833 268.5,410.5 Z"/></g>
</svg>
